<svg width="19" height="19" viewBox="0 0 19 19" fill="none" xmlns="http://www.w3.org/2000/svg">
<rect x="0.833335" y="0.611114" width="17.2222" height="17.2222" rx="8.61111" fill="white"/>
<rect x="0.833335" y="0.611114" width="17.2222" height="17.2222" rx="8.61111" stroke="#673F99" stroke-width="0.555556"/>
<path d="M12.9938 8.75926H9.9074V5.67284C9.9074 5.58758 9.83835 5.51852 9.75308 5.51852H9.1358C9.05054 5.51852 8.98148 5.58758 8.98148 5.67284V8.75926H5.89506C5.8098 8.75926 5.74074 8.82832 5.74074 8.91358V9.53087C5.74074 9.61613 5.8098 9.68519 5.89506 9.68519H8.98148V12.7716C8.98148 12.8569 9.05054 12.9259 9.1358 12.9259H9.75308C9.83835 12.9259 9.9074 12.8569 9.9074 12.7716V9.68519H12.9938C13.0791 9.68519 13.1481 9.61613 13.1481 9.53087V8.91358C13.1481 8.82832 13.0791 8.75926 12.9938 8.75926Z" fill="#673F99"/>
</svg>
