<svg width="38" height="38" viewBox="0 0 38 38" fill="none" xmlns="http://www.w3.org/2000/svg">
<rect width="38" height="38" rx="19" fill="#F8F2FF"/>
<path d="M26.0781 8C23.3645 8 21.1562 10.2082 21.1562 12.9219C21.1562 15.6355 23.3645 17.8438 26.0781 17.8438C28.7918 17.8438 31 15.6355 31 12.9219C31 10.2082 28.7918 8 26.0781 8ZM28.1875 13.625H26.7812V15.0312H25.375V13.625H23.9688V12.2188H25.375V10.8125H26.7812V12.2188H28.1875V13.625Z" fill="#673F99"/>
<path d="M13.4219 24.875C13.8109 24.875 27.1453 24.875 26.622 24.875L28.1807 18.8634C27.6921 19.037 27.1777 19.1447 26.6428 19.1929L26.6281 19.25H23.3263L23.3787 18.6223C22.8928 18.3911 22.449 18.0955 22.0406 17.7536L21.9159 19.25H18.9904L18.756 16.4375H20.8212C20.5319 16.0062 20.316 15.5283 20.1387 15.0312H13.5171L12.5794 10.8125H7V12.2188H11.4519L13.9513 23.4688H13.4219C12.2587 23.4688 11.3125 24.415 11.3125 25.5781C11.3125 26.7413 12.2587 27.6875 13.4219 27.6875H14.2545C14.1757 27.9085 14.125 28.1429 14.125 28.3906C14.125 29.5538 15.0712 30.5 16.2344 30.5C17.3975 30.5 18.3438 29.5538 18.3438 28.3906C18.3438 28.1429 18.293 27.9085 18.2142 27.6875H21.2858C21.207 27.9085 21.1562 28.1429 21.1562 28.3906C21.1562 29.5538 22.1025 30.5 23.2656 30.5C24.4288 30.5 25.375 29.5538 25.375 28.3906C25.375 28.1429 25.3243 27.9085 25.2455 27.6875H26.7812V26.2812H13.4219C13.0339 26.2812 12.7188 25.9661 12.7188 25.5781C12.7188 25.1902 13.0339 24.875 13.4219 24.875ZM23.2091 20.6562H26.2634L25.5343 23.4688H22.9747L23.2091 20.6562ZM21.7987 20.6562L21.5643 23.4688H19.3419L19.1075 20.6562H21.7987ZM17.9315 23.4688H15.3924L14.7672 20.6562H17.6971L17.9315 23.4688ZM13.8296 16.4375H17.3455L17.58 19.25H14.4548L13.8296 16.4375ZM16.9375 28.3906C16.9375 28.7786 16.6223 29.0938 16.2344 29.0938C15.8464 29.0938 15.5312 28.7786 15.5312 28.3906C15.5312 28.0027 15.8464 27.6875 16.2344 27.6875C16.6223 27.6875 16.9375 28.0027 16.9375 28.3906ZM23.9688 28.3906C23.9688 28.7786 23.6536 29.0938 23.2656 29.0938C22.8777 29.0938 22.5625 28.7786 22.5625 28.3906C22.5625 28.0027 22.8777 27.6875 23.2656 27.6875C23.6536 27.6875 23.9688 28.0027 23.9688 28.3906Z" fill="#673F99"/>
</svg>
