<svg width="26" height="24" viewBox="0 0 26 24" fill="none" xmlns="http://www.w3.org/2000/svg">
<path d="M6.00002 7.61124C5.84531 7.61124 5.69694 7.6727 5.58754 7.7821C5.47815 7.89149 5.41669 8.03987 5.41669 8.19458V9.4615C5.41669 9.61621 5.47815 9.76459 5.58754 9.87398C5.69694 9.98338 5.84531 10.0448 6.00002 10.0448C6.15473 10.0448 6.3031 9.98338 6.4125 9.87398C6.5219 9.76459 6.58335 9.61621 6.58335 9.4615V8.19458C6.58335 8.03987 6.5219 7.89149 6.4125 7.7821C6.3031 7.6727 6.15473 7.61124 6.00002 7.61124Z" fill="#673F99"/>
<path d="M6.00002 10.7797C5.84531 10.7797 5.69694 10.8412 5.58754 10.9506C5.47815 11.06 5.41669 11.2083 5.41669 11.363V12.63C5.41669 12.7847 5.47815 12.933 5.58754 13.0424C5.69694 13.1518 5.84531 13.2133 6.00002 13.2133C6.15473 13.2133 6.3031 13.1518 6.4125 13.0424C6.5219 12.933 6.58335 12.7847 6.58335 12.63V11.363C6.58335 11.2083 6.5219 11.06 6.4125 10.9506C6.3031 10.8412 6.15473 10.7797 6.00002 10.7797Z" fill="#673F99"/>
<path d="M6.00002 13.9482C5.84531 13.9482 5.69694 14.0096 5.58754 14.119C5.47815 14.2284 5.41669 14.3768 5.41669 14.5315V15.7984C5.41669 15.9531 5.47815 16.1015 5.58754 16.2109C5.69694 16.3203 5.84531 16.3818 6.00002 16.3818C6.15473 16.3818 6.3031 16.3203 6.4125 16.2109C6.5219 16.1015 6.58335 15.9531 6.58335 15.7984V14.5315C6.58335 14.3768 6.5219 14.2284 6.4125 14.119C6.3031 14.0096 6.15473 13.9482 6.00002 13.9482Z" fill="#673F99"/>
<path d="M4.17255 0.917725C3.49311 0.974613 2.87411 1.42744 2.64813 2.1106L1.87112 4.45646C0.923748 4.53569 0.166687 5.33124 0.166687 6.29761V8.61841C0.166874 8.87151 0.330242 9.09563 0.571147 9.17326C1.29886 9.40813 1.91644 10.3224 1.91669 11.4417C1.91679 12.5613 1.29909 13.4762 0.571147 13.7112C0.330242 13.7888 0.166874 14.0129 0.166687 14.266V17.7524C0.166687 18.7705 1.00453 19.6083 2.02264 19.6083H11.2318L21.1359 22.9898C22.0502 23.3021 23.0506 22.791 23.3519 21.8801L24.1084 19.5946C25.0654 19.5254 25.8334 18.7257 25.8334 17.7524V14.2649C25.8332 14.0118 25.6698 13.7877 25.4289 13.71C24.7012 13.4752 24.0836 12.5609 24.0834 11.4417C24.0833 10.322 24.7009 9.40706 25.4289 9.17212C25.6698 9.09449 25.8332 8.87038 25.8334 8.61727V6.29761C25.8334 5.2795 24.9955 4.44165 23.9774 4.44165H14.7705L4.86753 1.0009C4.63827 0.920608 4.38838 0.930758 4.17255 0.917725ZM4.25799 2.07528C4.33364 2.07012 4.41256 2.08007 4.49156 2.10604C6.73228 2.88413 8.9729 3.663 11.2136 4.44165H3.105L3.75555 2.47632C3.83395 2.23932 4.03105 2.09075 4.25799 2.07528ZM2.02264 5.60832H5.41669V6.16317C5.41669 6.48533 5.67785 6.7465 6.00002 6.7465C6.32219 6.7465 6.58335 6.48533 6.58335 6.16317V5.60832H23.9774C24.3695 5.60832 24.6667 5.90554 24.6667 6.29761V8.28345C23.5893 8.85104 22.9166 10.0743 22.9167 11.4417C22.917 12.8086 23.5896 14.0313 24.6667 14.5987V17.7524C24.6667 18.1444 24.3695 18.4417 23.9774 18.4417H6.58222C6.58511 18.2403 6.58335 18.0332 6.58335 17.8298C6.58335 17.5077 6.32218 17.2465 6.00002 17.2465C5.67786 17.2465 5.41669 17.5077 5.41669 17.8298C5.41552 18.0323 5.41718 18.2416 5.41785 18.4417H2.02267C1.63049 18.4417 1.33335 18.1444 1.33335 17.7524V14.5999C2.4107 14.0323 3.08348 12.809 3.08335 11.4417C3.08305 10.0747 2.4104 8.85196 1.33335 8.28459V6.29761C1.33335 5.90554 1.63057 5.60832 2.02264 5.60832ZM14.8423 19.6083H22.8745L22.2445 21.5133C22.1398 21.8296 21.822 21.9913 21.513 21.8858L14.8423 19.6083Z" fill="#673F99"/>
<path d="M18.1113 12.9095C19.1497 12.9095 20.0037 13.7635 20.0037 14.8019C20.0037 15.8403 19.1497 16.6955 18.1113 16.6955C17.0729 16.6955 16.2177 15.8403 16.2177 14.8019C16.2177 13.7635 17.0729 12.9095 18.1113 12.9095ZM18.1113 14.0762C17.7034 14.0762 17.3844 14.394 17.3844 14.8019C17.3844 15.2098 17.7034 15.5288 18.1113 15.5288C18.5192 15.5288 18.837 15.2098 18.837 14.8019C18.837 14.394 18.5192 14.0762 18.1113 14.0762Z" fill="#673F99"/>
<path d="M12.5563 7.35481C13.5947 7.35481 14.4487 8.20882 14.4487 9.24723C14.4487 10.2856 13.5947 11.1396 12.5563 11.1396C11.5179 11.1396 10.6628 10.2856 10.6628 9.24723C10.6628 8.20882 11.5179 7.35481 12.5563 7.35481ZM12.5563 8.52148C12.1484 8.52148 11.8294 8.83933 11.8294 9.24723C11.8294 9.65512 12.1484 9.97298 12.5563 9.97298C12.9642 9.97298 13.2821 9.65512 13.2821 9.24723C13.2821 8.83933 12.9642 8.52148 12.5563 8.52148Z" fill="#673F99"/>
<path d="M17.6986 8.83488L12.1432 14.3902C11.9155 14.618 11.9155 14.9873 12.1432 15.2151C12.371 15.4428 12.7403 15.4428 12.9681 15.2151L18.5234 9.65975C18.7512 9.43195 18.7512 9.06268 18.5234 8.83488C18.2852 8.62302 17.9232 8.60082 17.6986 8.83488Z" fill="#673F99"/>
</svg>
