<svg width="23" height="24" viewBox="0 0 23 24" fill="none" xmlns="http://www.w3.org/2000/svg">
<path fill-rule="evenodd" clip-rule="evenodd" d="M12.3839 1.11615C11.8957 0.627992 11.1043 0.627992 10.6161 1.11615C10.128 1.6043 10.128 2.39576 10.6161 2.88391L18.4822 10.75H1.5C0.809644 10.75 0.25 11.3097 0.25 12C0.25 12.6904 0.809644 13.25 1.5 13.25H18.4822L10.6161 21.1161C10.128 21.6043 10.128 22.3958 10.6161 22.8839C11.1043 23.3721 11.8957 23.3721 12.3839 22.8839L22.3839 12.8839C22.625 12.6428 22.747 12.3276 22.7499 12.0116M22.6552 11.5216C22.5942 11.3741 22.5037 11.236 22.3839 11.1161L12.3839 1.11615M22.6552 11.5216C22.7149 11.6656 22.7485 11.8232 22.7499 11.9885L22.6552 11.5216Z" fill="white"/>
</svg>
