<svg width="18" height="18" viewBox="0 0 18 18" fill="none" xmlns="http://www.w3.org/2000/svg">
<g clip-path="url(#clip0_0_432)">
<path d="M16.125 16.5H1.875C0.8415 16.5 0 15.6585 0 14.625V13.125C0 12.918 0.168 12.75 0.375 12.75H0.75C1.57725 12.75 2.25 12.0773 2.25 11.25C2.25 10.4227 1.57725 9.75 0.75 9.75H0.375C0.168 9.75 0 9.582 0 9.375V7.875C0 6.8415 0.8415 6 1.875 6H16.125C17.1585 6 18 6.8415 18 7.875V9.375C18 9.582 17.832 9.75 17.625 9.75H17.25C16.4228 9.75 15.75 10.4227 15.75 11.25C15.75 11.6505 15.906 12.027 16.1895 12.3105C16.4722 12.594 16.8488 12.75 17.2493 12.75H17.6243C17.8313 12.75 17.9993 12.918 17.9993 13.125V14.625C18 15.6585 17.1585 16.5 16.125 16.5ZM0.75 13.5V14.625C0.75 15.2452 1.25475 15.75 1.875 15.75H16.125C16.7453 15.75 17.25 15.2452 17.25 14.625V13.5C16.6493 13.5 16.0837 13.266 15.6593 12.8415C15.234 12.4162 15 11.8507 15 11.25C15 10.0095 16.0095 9 17.25 9V7.875C17.25 7.25475 16.7453 6.75 16.125 6.75H1.875C1.25475 6.75 0.75 7.25475 0.75 7.875V9C1.9905 9 3 10.0095 3 11.25C3 12.4905 1.9905 13.5 0.75 13.5Z" fill="#9F3090"/>
<path d="M6.375 7.5C6.168 7.5 6 7.332 6 7.125V6.375C6 6.168 6.168 6 6.375 6C6.582 6 6.75 6.168 6.75 6.375V7.125C6.75 7.332 6.582 7.5 6.375 7.5Z" fill="#9F3090"/>
<path d="M6.375 13.8458C6.168 13.8458 6 13.6778 6 13.4708V12.2025C6 11.9955 6.168 11.8275 6.375 11.8275C6.582 11.8275 6.75 11.9948 6.75 12.2025V13.4715C6.75 13.6785 6.582 13.8458 6.375 13.8458ZM6.375 10.6733C6.168 10.6733 6 10.5053 6 10.2983V9.02925C6 8.82225 6.168 8.65425 6.375 8.65425C6.582 8.65425 6.75 8.82225 6.75 9.02925V10.2983C6.75 10.5053 6.582 10.6733 6.375 10.6733Z" fill="#9F3090"/>
<path d="M6.375 16.5C6.168 16.5 6 16.332 6 16.125V15.375C6 15.168 6.168 15 6.375 15C6.582 15 6.75 15.168 6.75 15.375V16.125C6.75 16.332 6.582 16.5 6.375 16.5Z" fill="#9F3090"/>
<path d="M1.87499 6.75C1.72274 6.75 1.57949 6.657 1.52399 6.50625C1.45124 6.312 1.54949 6.096 1.74374 6.024L13.6687 1.57125C14.2485 1.35375 14.9295 1.67925 15.1275 2.2635L16.4797 6.25425C16.5457 6.45075 16.4407 6.663 16.245 6.72975C16.0507 6.7965 15.8362 6.69075 15.7695 6.495L14.4172 2.50425C14.3512 2.30925 14.1247 2.20275 13.9305 2.27325L2.00549 6.726C1.96274 6.7425 1.91849 6.75 1.87499 6.75Z" fill="#9F3090"/>
</g>
<defs>
<clipPath id="clip0_0_432">
<rect width="18" height="18" fill="white"/>
</clipPath>
</defs>
</svg>
